<mxfile host="app.diagrams.net" modified="2020-08-26T20:37:11.907Z" agent="5.0 (Windows NT 10.0; Win64; x64) AppleWebKit/537.36 (KHTML, like Gecko) Chrome/84.0.4147.135 Safari/537.36" etag="ILyH6ZcdhC_wRPWvw4jy" version="13.6.4" type="github">
  <diagram id="cYVvpgwx1CjJYt_Z6xen" name="Page-1">
    <mxGraphModel dx="868" dy="401" grid="1" gridSize="10" guides="1" tooltips="1" connect="1" arrows="1" fold="1" page="1" pageScale="1" pageWidth="1700" pageHeight="1100" math="0" shadow="0">
      <root>
        <mxCell id="0" />
        <mxCell id="1" parent="0" />
        <mxCell id="N04K_vKP6gg5eWqp78a7-2" value="Employé" style="shape=umlActor;verticalLabelPosition=bottom;verticalAlign=top;html=1;outlineConnect=0;" vertex="1" parent="1">
          <mxGeometry x="70" y="120" width="30" height="40" as="geometry" />
        </mxCell>
        <mxCell id="N04K_vKP6gg5eWqp78a7-5" style="edgeStyle=orthogonalEdgeStyle;rounded=0;orthogonalLoop=1;jettySize=auto;html=1;" edge="1" parent="1" source="N04K_vKP6gg5eWqp78a7-3">
          <mxGeometry relative="1" as="geometry">
            <mxPoint x="85" y="180" as="targetPoint" />
          </mxGeometry>
        </mxCell>
        <mxCell id="N04K_vKP6gg5eWqp78a7-3" value="Chef d&#39;équipe" style="shape=umlActor;verticalLabelPosition=bottom;verticalAlign=top;html=1;" vertex="1" parent="1">
          <mxGeometry x="70" y="240" width="30" height="40" as="geometry" />
        </mxCell>
        <mxCell id="N04K_vKP6gg5eWqp78a7-7" style="edgeStyle=orthogonalEdgeStyle;rounded=0;orthogonalLoop=1;jettySize=auto;html=1;" edge="1" parent="1" source="N04K_vKP6gg5eWqp78a7-6">
          <mxGeometry relative="1" as="geometry">
            <mxPoint x="85" y="310" as="targetPoint" />
          </mxGeometry>
        </mxCell>
        <mxCell id="N04K_vKP6gg5eWqp78a7-6" value="Administrateur" style="shape=umlActor;verticalLabelPosition=bottom;verticalAlign=top;html=1;" vertex="1" parent="1">
          <mxGeometry x="70" y="370" width="30" height="40" as="geometry" />
        </mxCell>
        <mxCell id="N04K_vKP6gg5eWqp78a7-9" value="" style="rounded=0;whiteSpace=wrap;html=1;" vertex="1" parent="1">
          <mxGeometry x="160" y="40" width="480" height="400" as="geometry" />
        </mxCell>
        <mxCell id="N04K_vKP6gg5eWqp78a7-10" value="&lt;b&gt;Assistant&amp;nbsp; intelligent de FOCUS&lt;/b&gt;" style="text;html=1;strokeColor=none;fillColor=none;align=center;verticalAlign=middle;whiteSpace=wrap;rounded=0;" vertex="1" parent="1">
          <mxGeometry x="295" y="50" width="210" height="20" as="geometry" />
        </mxCell>
        <mxCell id="N04K_vKP6gg5eWqp78a7-11" value="Consulter le calendrier des événements" style="ellipse;whiteSpace=wrap;html=1;" vertex="1" parent="1">
          <mxGeometry x="190" y="160" width="140" height="70" as="geometry" />
        </mxCell>
        <mxCell id="N04K_vKP6gg5eWqp78a7-12" value="consulter les événements par date" style="ellipse;whiteSpace=wrap;html=1;" vertex="1" parent="1">
          <mxGeometry x="470" y="230" width="140" height="70" as="geometry" />
        </mxCell>
        <mxCell id="N04K_vKP6gg5eWqp78a7-13" value="consulter tous&amp;nbsp; les événements&amp;nbsp;" style="ellipse;whiteSpace=wrap;html=1;" vertex="1" parent="1">
          <mxGeometry x="400" y="330" width="140" height="70" as="geometry" />
        </mxCell>
        <mxCell id="N04K_vKP6gg5eWqp78a7-14" value="consulter les événements par salle" style="ellipse;whiteSpace=wrap;html=1;" vertex="1" parent="1">
          <mxGeometry x="410" y="105" width="140" height="70" as="geometry" />
        </mxCell>
        <mxCell id="N04K_vKP6gg5eWqp78a7-19" value="" style="endArrow=block;endSize=16;endFill=0;html=1;exitX=0;exitY=0.5;exitDx=0;exitDy=0;entryX=1;entryY=1;entryDx=0;entryDy=0;" edge="1" parent="1" source="N04K_vKP6gg5eWqp78a7-12" target="N04K_vKP6gg5eWqp78a7-11">
          <mxGeometry width="160" relative="1" as="geometry">
            <mxPoint x="360" y="230" as="sourcePoint" />
            <mxPoint x="329" y="220" as="targetPoint" />
            <Array as="points">
              <mxPoint x="350" y="230" />
            </Array>
          </mxGeometry>
        </mxCell>
        <mxCell id="N04K_vKP6gg5eWqp78a7-20" value="" style="endArrow=block;endSize=16;endFill=0;html=1;exitX=0;exitY=0;exitDx=0;exitDy=0;" edge="1" parent="1" source="N04K_vKP6gg5eWqp78a7-13" target="N04K_vKP6gg5eWqp78a7-11">
          <mxGeometry width="160" relative="1" as="geometry">
            <mxPoint x="360" y="320" as="sourcePoint" />
            <mxPoint x="520" y="320" as="targetPoint" />
          </mxGeometry>
        </mxCell>
        <mxCell id="N04K_vKP6gg5eWqp78a7-24" value="" style="endArrow=block;endSize=16;endFill=0;html=1;exitX=0.064;exitY=0.786;exitDx=0;exitDy=0;exitPerimeter=0;entryX=1;entryY=0.5;entryDx=0;entryDy=0;" edge="1" parent="1" source="N04K_vKP6gg5eWqp78a7-14" target="N04K_vKP6gg5eWqp78a7-11">
          <mxGeometry width="160" relative="1" as="geometry">
            <mxPoint x="360" y="320" as="sourcePoint" />
            <mxPoint x="520" y="320" as="targetPoint" />
          </mxGeometry>
        </mxCell>
        <mxCell id="N04K_vKP6gg5eWqp78a7-27" value="" style="endArrow=none;html=1;exitX=0;exitY=0.5;exitDx=0;exitDy=0;" edge="1" parent="1" source="N04K_vKP6gg5eWqp78a7-11" target="N04K_vKP6gg5eWqp78a7-2">
          <mxGeometry width="50" height="50" relative="1" as="geometry">
            <mxPoint x="410" y="320" as="sourcePoint" />
            <mxPoint x="460" y="270" as="targetPoint" />
          </mxGeometry>
        </mxCell>
      </root>
    </mxGraphModel>
  </diagram>
</mxfile>
